<?xml version="1.0" encoding="UTF-8" standalone="no"?>
<svg width="320px" height="34px" viewBox="0 0 320 34" version="1.1" xmlns="http://www.w3.org/2000/svg" xmlns:xlink="http://www.w3.org/1999/xlink">
    <!-- Generator: Sketch 3.7 (28169) - http://www.bohemiancoding.com/sketch -->
    <title>Logo</title>
    <desc>Created with Sketch.</desc>
    <defs></defs>
    <g id="Page-1" stroke="none" stroke-width="1" fill="none" fill-rule="evenodd">
        <g id="Desktop-HD" transform="translate(-560.000000, -73.000000)" fill="#000000">
            <g id="Logo" transform="translate(560.000000, 73.000000)">
                <g id="Group">
                    <path d="M49.4789857,0.866666667 C49.8173667,0.866666667 50.1096048,0.991111111 50.3557,1.24 C50.6017952,1.48888889 50.7248429,1.78444444 50.7248429,2.12666667 L50.7248429,7.07333333 C50.7248429,7.41555556 50.6017952,7.71111111 50.3557,7.96 C50.1096048,8.20888889 49.8173667,8.33333333 49.4789857,8.33333333 L35.6822714,8.33333333 L35.6822714,14.7266667 L48.5561286,14.7266667 C48.8945095,14.7266667 49.1867476,14.8511111 49.4328429,15.1 C49.6789381,15.3488889 49.8019857,15.6444444 49.8019857,15.9866667 L49.8019857,20.9333333 C49.8019857,21.2755556 49.6789381,21.5711111 49.4328429,21.82 C49.1867476,22.0688889 48.8945095,22.1933333 48.5561286,22.1933333 L35.6822714,22.1933333 L35.6822714,32.2733333 C35.6822714,32.6155556 35.5592238,32.9111111 35.3131286,33.16 C35.0670333,33.4088889 34.7747952,33.5333333 34.4364143,33.5333333 L28.3917,33.5333333 C28.053319,33.5333333 27.761081,33.4088889 27.5149857,33.16 C27.2688905,32.9111111 27.1458429,32.6155556 27.1458429,32.2733333 L27.1458429,2.12666667 C27.1458429,1.78444444 27.2688905,1.48888889 27.5149857,1.24 C27.761081,0.991111111 28.053319,0.866666667 28.3917,0.866666667 L49.4789857,0.866666667 Z" id="Fill-1"></path>
                    <path d="M95.4361179,33.5329444 C94.9131655,33.5329444 94.4901893,33.3929444 94.1671893,33.1129444 C93.8441893,32.8329444 93.6365464,32.6151667 93.5442607,32.4596111 L82.9775464,16.4996111 L82.9775464,32.2729444 C82.9775464,32.6151667 82.8544988,32.9107222 82.6084036,33.1596111 C82.3623083,33.4085 82.0700702,33.5329444 81.7316893,33.5329444 L75.686975,33.5329444 C75.348594,33.5329444 75.056356,33.4085 74.8102607,33.1596111 C74.5641655,32.9107222 74.4411179,32.6151667 74.4411179,32.2729444 L74.4411179,2.12627778 C74.4411179,1.78405556 74.5641655,1.4885 74.8102607,1.23961111 C75.056356,0.990722222 75.348594,0.866277778 75.686975,0.866277778 L80.4858321,0.866277778 C81.0087845,0.866277778 81.4317607,1.00627778 81.7547607,1.28627778 C82.0777607,1.56627778 82.2854036,1.78405556 82.3776893,1.93961111 L92.9444036,17.8996111 L92.9444036,2.12627778 C92.9444036,1.78405556 93.0674512,1.4885 93.3135464,1.23961111 C93.5596417,0.990722222 93.8518798,0.866277778 94.1902607,0.866277778 L100.234975,0.866277778 C100.573356,0.866277778 100.865594,0.990722222 101.111689,1.23961111 C101.357785,1.4885 101.480832,1.78405556 101.480832,2.12627778 L101.480832,32.2729444 C101.480832,32.6151667 101.357785,32.9107222 101.111689,33.1596111 C100.865594,33.4085 100.573356,33.5329444 100.234975,33.5329444 L95.4361179,33.5329444 Z" id="Fill-3"></path>
                    <path d="M134.012315,0.866666667 C134.350696,0.866666667 134.642935,0.991111111 134.88903,1.24 C135.135125,1.48888889 135.258173,1.78444444 135.258173,2.12666667 L135.258173,32.2733333 C135.258173,32.6155556 135.135125,32.9111111 134.88903,33.16 C134.642935,33.4088889 134.350696,33.5333333 134.012315,33.5333333 L127.967601,33.5333333 C127.62922,33.5333333 127.336982,33.4088889 127.090887,33.16 C126.844792,32.9111111 126.721744,32.6155556 126.721744,32.2733333 L126.721744,20.84 L116.47803,20.84 L116.47803,32.2733333 C116.47803,32.6155556 116.354982,32.9111111 116.108887,33.16 C115.862792,33.4088889 115.570554,33.5333333 115.232173,33.5333333 L109.187458,33.5333333 C108.849077,33.5333333 108.556839,33.4166667 108.310744,33.1833333 C108.064649,32.95 107.941601,32.6466667 107.941601,32.2733333 L107.941601,2.12666667 C107.941601,1.78444444 108.064649,1.48888889 108.310744,1.24 C108.556839,0.991111111 108.849077,0.866666667 109.187458,0.866666667 L115.232173,0.866666667 C115.570554,0.866666667 115.862792,0.991111111 116.108887,1.24 C116.354982,1.48888889 116.47803,1.78444444 116.47803,2.12666667 L116.47803,13.3733333 L126.721744,13.3733333 L126.721744,2.12666667 C126.721744,1.78444444 126.844792,1.48888889 127.090887,1.24 C127.336982,0.991111111 127.62922,0.866666667 127.967601,0.866666667 L134.012315,0.866666667 Z" id="Fill-5"></path>
                    <path d="M151.313964,21.2603889 L158.789107,21.2603889 L155.051536,10.0603889 L151.313964,21.2603889 Z M158.789107,0.867055556 C159.404345,0.867055556 159.873464,1.03816667 160.196464,1.38038889 C160.519464,1.72261111 160.742488,2.06483333 160.865536,2.40705556 L170.924679,31.8070556 C171.047726,32.1181667 171.10925,32.3515 171.10925,32.5070556 C171.10925,32.7870556 171.009274,33.0281667 170.809321,33.2303889 C170.609369,33.4326111 170.370964,33.5337222 170.094107,33.5337222 L164.280107,33.5337222 C163.664869,33.5337222 163.226512,33.4015 162.965036,33.1370556 C162.70356,32.8726111 162.54206,32.6159444 162.480536,32.3670556 L161.188536,28.4937222 L148.914536,28.4937222 L147.622536,32.3670556 C147.561012,32.6159444 147.399512,32.8726111 147.138036,33.1370556 C146.87656,33.4015 146.438202,33.5337222 145.822964,33.5337222 L140.008964,33.5337222 C139.732107,33.5337222 139.493702,33.4326111 139.29375,33.2303889 C139.093798,33.0281667 138.993821,32.7870556 138.993821,32.5070556 C138.993821,32.3515 139.055345,32.1181667 139.178393,31.8070556 L149.237536,2.40705556 C149.360583,2.06483333 149.583607,1.72261111 149.906607,1.38038889 C150.229607,1.03816667 150.698726,0.867055556 151.313964,0.867055556 L158.789107,0.867055556 Z" id="Fill-7"></path>
                    <path d="M181.492162,13.2796111 C181.4614,13.6840556 181.438329,14.2440556 181.422948,14.9596111 C181.407567,15.6751667 181.399876,16.4140556 181.399876,17.1762778 C181.399876,17.9385 181.407567,18.6851667 181.422948,19.4162778 C181.438329,20.1473889 181.4614,20.7151667 181.492162,21.1196111 C181.553686,21.8351667 181.692114,22.5196111 181.907448,23.1729444 C182.122781,23.8262778 182.461162,24.4018333 182.92259,24.8996111 C183.384019,25.3973889 183.968495,25.7940556 184.676019,26.0896111 C185.383543,26.3851667 186.260257,26.5329444 187.306162,26.5329444 C188.352067,26.5329444 189.2134,26.4085 189.890162,26.1596111 C190.566924,25.9107222 191.120638,25.6073889 191.551305,25.2496111 C191.981971,24.8918333 192.312662,24.4951667 192.543376,24.0596111 C192.77409,23.6240556 192.950971,23.2196111 193.074019,22.8462778 C193.227829,22.3485 193.397019,21.9985 193.58159,21.7962778 C193.766162,21.5940556 194.119924,21.4929444 194.642876,21.4929444 L200.68759,21.4929444 C200.964448,21.4929444 201.202852,21.5940556 201.402805,21.7962778 C201.602757,21.9985 201.702733,22.2396111 201.702733,22.5196111 C201.671971,24.1062778 201.287448,25.5996111 200.549162,26.9996111 C199.810876,28.3996111 198.795733,29.6129444 197.503733,30.6396111 C196.211733,31.6662778 194.69671,32.4829444 192.958662,33.0896111 C191.220614,33.6962778 189.336448,33.9996111 187.306162,33.9996111 C185.091305,33.9996111 183.114852,33.6651667 181.376805,32.9962778 C179.638757,32.3273889 178.154495,31.4173889 176.924019,30.2662778 C175.693543,29.1151667 174.747614,27.7696111 174.086233,26.2296111 C173.424852,24.6896111 173.048019,23.0640556 172.955733,21.3529444 C172.89421,20.0773889 172.863448,18.7085 172.863448,17.2462778 C172.863448,15.7840556 172.89421,14.3840556 172.955733,13.0462778 C173.017257,11.3351667 173.3864,9.70961111 174.063162,8.16961111 C174.739924,6.62961111 175.685852,5.28405556 176.900948,4.13294444 C178.116043,2.98183333 179.600305,2.07183333 181.353733,1.40294444 C183.107162,0.734055556 185.091305,0.399611111 187.306162,0.399611111 C189.336448,0.399611111 191.220614,0.702944444 192.958662,1.30961111 C194.69671,1.91627778 196.211733,2.73294444 197.503733,3.75961111 C198.795733,4.78627778 199.810876,5.99961111 200.549162,7.39961111 C201.287448,8.79961111 201.671971,10.2929444 201.702733,11.8796111 C201.702733,12.1596111 201.602757,12.4007222 201.402805,12.6029444 C201.202852,12.8051667 200.964448,12.9062778 200.68759,12.9062778 L194.642876,12.9062778 C194.119924,12.9062778 193.766162,12.8051667 193.58159,12.6029444 C193.397019,12.4007222 193.227829,12.0507222 193.074019,11.5529444 C192.950971,11.1796111 192.77409,10.7751667 192.543376,10.3396111 C192.312662,9.90405556 191.981971,9.50738889 191.551305,9.14961111 C191.120638,8.79183333 190.566924,8.4885 189.890162,8.23961111 C189.2134,7.99072222 188.352067,7.86627778 187.306162,7.86627778 C186.260257,7.86627778 185.383543,8.01405556 184.676019,8.30961111 C183.968495,8.60516667 183.384019,9.00183333 182.92259,9.49961111 C182.461162,9.99738889 182.122781,10.5729444 181.907448,11.2262778 C181.692114,11.8796111 181.553686,12.5640556 181.492162,13.2796111" id="Fill-9"></path>
                    <path d="M233.817777,31.9929444 C233.910063,32.1173889 233.956206,32.2885 233.956206,32.5062778 C233.956206,32.7862778 233.85623,33.0273889 233.656277,33.2296111 C233.456325,33.4318333 233.21792,33.5329444 232.941063,33.5329444 L225.604349,33.5329444 C225.173682,33.5329444 224.81992,33.4396111 224.543063,33.2529444 C224.266206,33.0662778 223.989349,32.8018333 223.712492,32.4596111 L214.991492,21.3529444 L214.991492,32.2729444 C214.991492,32.6151667 214.868444,32.9107222 214.622349,33.1596111 C214.376254,33.4085 214.084015,33.5329444 213.745635,33.5329444 L207.70092,33.5329444 C207.362539,33.5329444 207.070301,33.4085 206.824206,33.1596111 C206.578111,32.9107222 206.455063,32.6151667 206.455063,32.2729444 L206.455063,2.12627778 C206.455063,1.78405556 206.578111,1.4885 206.824206,1.23961111 C207.070301,0.990722222 207.362539,0.866277778 207.70092,0.866277778 L213.745635,0.866277778 C214.084015,0.866277778 214.376254,0.990722222 214.622349,1.23961111 C214.868444,1.4885 214.991492,1.78405556 214.991492,2.12627778 L214.991492,11.9729444 L223.112635,1.89294444 C223.266444,1.70627778 223.466396,1.4885 223.712492,1.23961111 C223.958587,0.990722222 224.373873,0.866277778 224.958349,0.866277778 L232.156635,0.866277778 C232.433492,0.866277778 232.671896,0.967388889 232.871849,1.16961111 C233.071801,1.37183333 233.171777,1.61294444 233.171777,1.89294444 C233.171777,2.11072222 233.125635,2.28183333 233.033349,2.40627778 L221.636063,16.4996111 L233.817777,31.9929444 Z" id="Fill-12"></path>
                    <path d="M247.107305,21.2603889 L254.582448,21.2603889 L250.844876,10.0603889 L247.107305,21.2603889 Z M254.582448,0.867055556 C255.197686,0.867055556 255.666805,1.03816667 255.989805,1.38038889 C256.312805,1.72261111 256.535829,2.06483333 256.658876,2.40705556 L266.718019,31.8070556 C266.841067,32.1181667 266.90259,32.3515 266.90259,32.5070556 C266.90259,32.7870556 266.802614,33.0281667 266.602662,33.2303889 C266.40271,33.4326111 266.164305,33.5337222 265.887448,33.5337222 L260.073448,33.5337222 C259.45821,33.5337222 259.019852,33.4015 258.758376,33.1370556 C258.4969,32.8726111 258.3354,32.6159444 258.273876,32.3670556 L256.981876,28.4937222 L244.707876,28.4937222 L243.415876,32.3670556 C243.354352,32.6159444 243.192852,32.8726111 242.931376,33.1370556 C242.6699,33.4015 242.231543,33.5337222 241.616305,33.5337222 L235.802305,33.5337222 C235.525448,33.5337222 235.287043,33.4326111 235.08709,33.2303889 C234.887138,33.0281667 234.787162,32.7870556 234.787162,32.5070556 C234.787162,32.3515 234.848686,32.1181667 234.971733,31.8070556 L245.030876,2.40705556 C245.153924,2.06483333 245.376948,1.72261111 245.699948,1.38038889 C246.022948,1.03816667 246.492067,0.867055556 247.107305,0.867055556 L254.582448,0.867055556 Z" id="Fill-14"></path>
                    <path d="M291.126437,0.866666667 C291.464818,0.866666667 291.757056,0.991111111 292.003151,1.24 C292.249246,1.48888889 292.372294,1.78444444 292.372294,2.12666667 L292.372294,7.07333333 C292.372294,7.41555556 292.249246,7.71111111 292.003151,7.96 C291.757056,8.20888889 291.464818,8.33333333 291.126437,8.33333333 L283.005294,8.33333333 L283.005294,32.2733333 C283.005294,32.6155556 282.882246,32.9111111 282.636151,33.16 C282.390056,33.4088889 282.097818,33.5333333 281.759437,33.5333333 L275.714723,33.5333333 C275.376342,33.5333333 275.084104,33.4088889 274.838008,33.16 C274.591913,32.9111111 274.468865,32.6155556 274.468865,32.2733333 L274.468865,8.33333333 L266.347723,8.33333333 C266.009342,8.33333333 265.717104,8.20888889 265.471008,7.96 C265.224913,7.71111111 265.101865,7.41555556 265.101865,7.07333333 L265.101865,2.12666667 C265.101865,1.78444444 265.224913,1.48888889 265.471008,1.24 C265.717104,0.991111111 266.009342,0.866666667 266.347723,0.866666667 L291.126437,0.866666667 Z" id="Fill-16"></path>
                    <path d="M71.228806,0.866666667 C71.5441155,0.995 71.7671393,1.22444444 71.9017226,1.54722222 C72.0324607,1.87388889 72.036306,2.19666667 71.9094131,2.51166667 L59.666175,32.7827778 C59.5392821,33.0977778 59.3162583,33.3233333 58.9971036,33.4594444 L51.4988893,33.4205556 C51.187425,33.2844444 50.960556,33.0627778 50.8298179,32.7361111 C50.6952345,32.4094444 50.6913893,32.0905556 50.8182821,31.7755556 L63.0884369,1.61722222 C63.2153298,1.29833333 63.5114131,1.00277778 63.8344131,0.866666667 L71.228806,0.866666667 Z" id="Fill-18"></path>
                    <path d="M319.518906,18.2045 C319.518906,18.7528333 319.392013,19.1728333 319.138227,19.4606111 C318.884442,19.7522778 318.519144,20.0517222 318.050025,20.3589444 L299.043013,33.3789444 C298.904585,33.4489444 298.796918,33.4878333 298.712323,33.5072778 C298.627727,33.5228333 298.550823,33.5345 298.485454,33.5345 C298.18168,33.5345 297.927894,33.4295 297.724096,33.2233889 C297.520299,33.0211667 297.420323,32.7645 297.420323,32.4572778 L297.420323,25.4339444 C297.420323,24.8506111 297.604894,24.3917222 297.977882,24.0495 C298.35087,23.7072778 298.704632,23.4156111 299.043013,23.1783889 L307.96012,17.1272778 L299.043013,11.0800556 C298.704632,10.8428333 298.35087,10.5511667 297.977882,10.2089444 C297.604894,9.86672222 297.420323,9.40783333 297.420323,8.8245 L297.420323,1.80116667 C297.420323,1.49394444 297.520299,1.23727778 297.724096,1.03505556 C297.927894,0.828944444 298.18168,0.727833333 298.485454,0.727833333 C298.550823,0.727833333 298.627727,0.735611111 298.712323,0.751166667 C298.796918,0.770611111 298.904585,0.8095 299.043013,0.8795 L318.050025,13.8995 C318.519144,14.2067222 318.884442,14.5061667 319.138227,14.7978333 C319.392013,15.0895 319.518906,15.5056111 319.518906,16.0539444 L319.518906,18.2045 Z" id="Fill-20"></path>
                    <path d="M0,16.0543333 C0,15.506 0.126892857,15.086 0.380678571,14.7982222 C0.634464286,14.5065556 0.999761905,14.2071111 1.46888095,13.8998889 L20.4758929,0.879888889 C20.6143214,0.809888889 20.7219881,0.771 20.8065833,0.751555556 C20.8911786,0.736 20.9680833,0.724333333 21.0334524,0.724333333 C21.3372262,0.724333333 21.5910119,0.829333333 21.7948095,1.03544444 C21.9986071,1.23766667 22.0985833,1.49433333 22.0985833,1.80155556 L22.0985833,8.82488889 C22.0985833,9.40822222 21.9140119,9.86711111 21.5410238,10.2093333 C21.1680357,10.5515556 20.8142738,10.8432222 20.4758929,11.0804444 L11.5587857,17.1315556 L20.4758929,23.1787778 C20.8142738,23.416 21.1680357,23.7076667 21.5410238,24.0498889 C21.9140119,24.3921111 22.0985833,24.851 22.0985833,25.4343333 L22.0985833,32.4576667 C22.0985833,32.7648889 21.9986071,33.0215556 21.7948095,33.2237778 C21.5910119,33.4298889 21.3372262,33.5348889 21.0334524,33.5348889 C20.9680833,33.5348889 20.8911786,33.5232222 20.8065833,33.5076667 C20.7219881,33.4882222 20.6143214,33.4493333 20.4758929,33.3793333 L1.46888095,20.3593333 C0.999761905,20.0521111 0.634464286,19.7526667 0.380678571,19.461 C0.126892857,19.1693333 0,18.7532222 0,18.2087778 L0,16.0543333 Z" id="Fill-22"></path>
                </g>
            </g>
        </g>
    </g>
</svg>